<?xml version="1.0" standalone="no"?>
<!DOCTYPE svg PUBLIC "-//W3C//DTD SVG 20010904//EN"
 "http://www.w3.org/TR/2001/REC-SVG-20010904/DTD/svg10.dtd">
<svg version="1.0" xmlns="http://www.w3.org/2000/svg"
 width="300.000000pt" height="300.000000pt" viewBox="0 0 300.000000 300.000000"
 preserveAspectRatio="xMidYMid meet">
<metadata>
Created by potrace 1.14, written by Peter Selinger 2001-2017
</metadata>
<g transform="translate(0.000000,300.000000) scale(0.100000,-0.100000)"
fill="#000000" stroke="none">
<path d="M1495 2887 c-27 -5 -62 -9 -77 -10 -16 -1 -28 -4 -28 -7 0 -3 -8 -6
-17 -6 -10 -1 -40 -5 -68 -9 -27 -4 -57 -9 -65 -9 -9 -1 -21 -5 -28 -10 -6 -4
-12 -4 -12 1 0 4 -4 2 -8 -5 -5 -7 -23 -14 -40 -15 -18 -1 -32 -6 -32 -10 0
-5 -4 -5 -10 -2 -5 3 -20 0 -32 -6 -13 -7 -30 -14 -38 -15 -71 -10 -260 -72
-260 -85 0 -6 -101 -53 -107 -51 -1 1 -19 -14 -39 -33 -20 -19 -40 -35 -45
-35 -11 0 -99 -77 -94 -82 3 -2 -9 -19 -25 -36 -16 -18 -26 -32 -22 -32 4 0 0
-6 -8 -13 -18 -14 -53 -67 -45 -67 4 0 -1 -7 -9 -16 -9 -8 -14 -19 -11 -23 2
-5 -5 -18 -16 -29 -11 -12 -17 -22 -14 -22 3 0 -1 -13 -10 -30 -8 -16 -15 -31
-15 -32 1 -2 -1 -10 -4 -18 -10 -31 -19 -75 -18 -82 1 -5 -3 -8 -10 -8 -6 0
-9 -2 -6 -5 3 -3 -1 -31 -9 -63 -22 -89 -24 -104 -27 -147 -1 -22 -5 -46 -9
-52 -5 -7 -6 -17 -3 -22 4 -5 0 -12 -6 -14 -7 -3 -8 -6 -3 -6 6 -1 9 -22 7
-48 -7 -122 -2 -312 10 -319 4 -3 4 -13 -2 -23 -5 -10 -7 -21 -4 -24 3 -3 8
-23 11 -44 3 -21 10 -46 15 -57 7 -14 7 -17 -2 -11 -9 5 -10 2 -3 -11 5 -11 9
-31 8 -46 0 -16 3 -28 8 -28 5 0 7 -6 5 -12 -3 -7 1 -23 7 -35 7 -13 11 -34 9
-48 -1 -14 2 -25 7 -25 6 0 8 -3 5 -8 -2 -4 4 -25 14 -47 11 -22 19 -43 20
-47 0 -4 5 -19 12 -35 6 -15 12 -35 14 -43 2 -8 8 -16 13 -18 6 -2 11 -10 11
-18 0 -8 4 -14 9 -14 5 0 15 -16 22 -35 7 -19 17 -35 21 -35 4 0 8 -6 8 -13 0
-7 14 -23 30 -37 17 -14 30 -30 30 -37 0 -7 7 -13 15 -13 8 0 14 -3 13 -7 -4
-13 26 -53 39 -53 7 0 13 -7 13 -16 0 -8 4 -12 10 -9 5 3 10 1 10 -4 0 -6 7
-11 16 -11 8 0 12 -5 9 -10 -3 -5 -1 -10 5 -10 6 0 25 -15 44 -33 18 -17 41
-34 52 -35 10 -2 26 -10 35 -18 8 -8 22 -14 29 -14 7 0 10 -3 7 -7 -8 -7 26
-26 80 -43 21 -7 56 -22 77 -32 21 -11 50 -22 65 -25 14 -2 40 -11 57 -19 18
-9 38 -17 46 -18 38 -8 74 -20 85 -28 6 -5 25 -10 42 -10 17 -1 31 -4 31 -7 0
-4 17 -8 37 -9 21 -2 40 -6 43 -10 3 -4 23 -9 45 -11 66 -6 90 -9 90 -11 0 -5
50 -10 98 -10 26 -1 47 -6 47 -11 0 -6 8 -6 20 1 11 6 20 7 20 2 0 -5 12 -7
28 -5 30 5 67 6 97 3 11 -1 38 1 60 5 22 4 48 7 58 8 9 1 17 4 17 7 0 3 12 7
26 8 15 1 33 7 40 13 11 9 14 8 14 -2 0 -11 2 -11 10 1 5 8 10 11 10 7 0 -9
83 33 88 45 2 4 9 5 17 2 7 -3 16 0 20 5 3 6 10 9 14 7 4 -3 17 4 29 14 12 11
26 20 32 20 5 0 10 5 10 11 0 5 4 8 9 4 6 -3 14 3 20 12 6 10 11 15 11 10 0
-9 50 22 71 45 9 10 20 14 24 10 5 -4 5 -2 2 4 -7 12 59 71 74 66 5 -1 8 2 7
7 -3 9 27 49 87 116 14 17 33 43 41 58 8 15 19 25 24 22 6 -4 10 1 10 9 0 8 8
20 18 25 9 6 13 11 8 11 -5 0 -2 7 5 16 7 9 18 24 24 34 5 9 22 36 37 58 15
23 29 47 30 54 2 7 5 15 8 18 14 14 60 110 65 135 8 39 10 44 24 80 7 17 13
38 14 48 1 9 5 17 10 17 5 0 4 6 -2 13 -6 8 -8 16 -5 19 2 3 7 16 9 29 3 13 7
35 10 49 3 14 8 45 11 70 8 77 10 85 18 98 4 7 3 19 -3 26 -6 7 -8 16 -5 19
11 11 15 129 6 157 -7 19 -7 31 1 39 8 8 8 11 -1 11 -9 0 -10 5 -3 18 6 11 6
24 0 35 -6 9 -7 17 -3 17 3 0 2 6 -3 13 -6 6 -9 20 -8 29 2 9 -4 19 -12 22 -8
3 -11 11 -8 16 4 6 1 17 -5 25 -7 8 -10 15 -6 15 3 0 0 16 -8 35 -8 19 -12 35
-9 35 3 0 -1 8 -9 18 -9 9 -28 42 -43 72 -15 30 -35 64 -44 74 -9 11 -11 16
-4 13 6 -4 0 16 -14 43 -14 28 -29 50 -35 50 -6 0 -8 7 -4 15 3 9 0 15 -9 15
-8 0 -14 3 -13 8 1 4 -3 17 -10 28 -6 12 -8 25 -4 29 4 5 1 5 -5 1 -8 -4 -13
-2 -13 6 0 7 -11 22 -25 32 -13 10 -22 23 -18 29 4 6 1 7 -6 3 -8 -5 -14 -1
-18 12 -3 11 -11 23 -19 26 -8 3 -14 12 -14 21 0 8 -7 15 -15 15 -8 0 -19 8
-24 18 -5 10 -21 24 -35 31 -14 8 -24 19 -23 25 1 6 -4 10 -10 9 -7 -2 -13 3
-13 10 0 7 -15 21 -34 31 -18 10 -47 30 -63 44 -38 34 -69 52 -88 52 -8 0 -15
4 -15 8 0 5 -16 14 -35 22 -19 8 -35 18 -35 22 0 5 -4 7 -9 3 -5 -3 -12 -1
-16 5 -4 6 -10 8 -15 5 -5 -3 -11 -1 -15 5 -3 5 -16 10 -28 10 -13 0 -33 8
-46 17 -14 9 -21 11 -17 5 5 -8 2 -10 -8 -6 -9 3 -16 10 -16 14 0 4 -10 7 -22
6 -13 -1 -49 4 -80 11 -32 7 -71 14 -88 15 -18 1 -34 6 -36 10 -3 5 -10 6 -15
3 -5 -4 -14 -3 -21 1 -7 5 -28 9 -48 10 -19 1 -57 6 -85 11 -28 5 -72 5 -100
0z m140 -525 c5 -3 23 -7 40 -8 16 -1 30 -2 30 -3 0 -1 12 -4 26 -6 25 -3 91
-14 114 -19 6 -1 16 -5 23 -10 7 -4 19 -5 27 -2 8 3 15 1 15 -4 0 -4 14 -11
30 -15 17 -4 30 -11 30 -16 0 -6 4 -8 9 -4 5 3 16 -2 24 -10 9 -8 19 -15 24
-15 19 0 195 -168 196 -186 0 -5 8 -15 18 -22 11 -7 19 -20 19 -28 0 -8 5 -14
11 -14 5 0 7 -4 4 -10 -3 -5 -1 -10 5 -10 6 0 9 -4 5 -9 -3 -5 2 -16 11 -25 8
-9 16 -25 17 -36 1 -11 4 -20 7 -20 4 0 12 -16 20 -35 8 -19 17 -35 20 -35 3
0 17 -30 30 -66 22 -62 35 -203 21 -229 -3 -5 -6 -25 -7 -45 -1 -19 -5 -51 -9
-70 -4 -19 -8 -48 -10 -65 -1 -16 -4 -30 -5 -30 -2 0 -5 -14 -13 -56 -3 -15
-12 -41 -21 -58 -9 -17 -14 -31 -11 -31 3 0 -6 -16 -21 -35 -14 -19 -22 -35
-18 -35 5 0 1 -5 -9 -11 -9 -6 -15 -14 -12 -20 4 -5 2 -9 -2 -9 -5 0 -22 -21
-38 -46 -16 -25 -38 -52 -49 -60 -11 -8 -17 -14 -13 -14 8 0 -14 -28 -62 -79
-19 -20 -39 -35 -43 -33 -5 1 -7 -1 -4 -6 5 -8 -45 -52 -60 -52 -3 0 -19 -9
-35 -21 -16 -11 -29 -17 -29 -14 0 4 -10 1 -22 -7 -13 -8 -43 -20 -68 -26 -55
-14 -190 -14 -206 -1 -8 7 -14 6 -19 -1 -3 -6 -11 -7 -17 -4 -5 4 -24 8 -41 9
-18 2 -45 6 -62 10 -16 3 -43 9 -60 12 -16 3 -38 9 -47 14 -10 5 -18 7 -18 3
0 -3 -6 -1 -13 5 -8 6 -16 9 -19 6 -3 -3 -18 1 -33 9 -16 8 -32 13 -37 10 -4
-3 -8 0 -8 5 0 6 -10 11 -23 11 -13 0 -27 4 -33 8 -5 5 -35 17 -66 26 -32 10
-58 22 -58 27 0 5 -9 9 -19 9 -11 0 -26 7 -35 15 -8 8 -18 15 -23 15 -15 0
-119 104 -149 150 -35 53 -50 85 -59 123 -3 15 -9 26 -13 23 -4 -3 -7 7 -7 22
1 15 -1 32 -4 37 -3 6 -7 21 -9 35 -6 46 -10 75 -12 75 -3 0 -12 91 -13 133 0
23 -3 42 -6 42 -11 0 -1 208 15 305 3 22 7 47 8 55 1 9 6 21 10 28 4 7 10 28
13 45 5 38 25 87 35 87 4 0 5 7 2 15 -4 8 -1 15 6 15 6 0 9 4 6 9 -3 5 5 20
18 34 13 14 22 28 19 31 -3 3 6 11 21 17 14 7 26 16 26 21 0 4 7 8 15 8 8 0
15 5 15 11 0 5 5 7 10 4 6 -3 10 -2 10 3 0 8 63 39 85 43 2 0 19 5 37 10 35
11 35 11 118 33 30 8 80 22 110 31 30 9 72 17 93 19 20 2 40 5 43 9 7 7 166 7
179 -1z"/>
</g>
</svg>
